<svg width="64" height="64" viewBox="0 0 64 64" xmlns="http://www.w3.org/2000/svg" role="img" aria-labelledby="title">
  <title id="title">Maps with Friends</title>
  <defs>
    <linearGradient id="pin-gradient" x1="18" y1="12" x2="46" y2="54" gradientUnits="userSpaceOnUse">
      <stop stop-color="#38bdf8" />
      <stop offset="1" stop-color="#2563eb" />
    </linearGradient>
  </defs>
  <rect width="64" height="64" rx="14" fill="#162033" />
  <path d="M9 45.5 18 19l13 5.5 13-7 11 27-13 7.5-13-5.5-20 7Z" fill="#e0f2fe" />
  <path d="M18 19v28.5M31 24.5v22M44 17.5V45" stroke="#7dd3fc" stroke-width="3" stroke-linecap="round" opacity=".9" />
  <path d="M32 10c-8.3 0-15 6.5-15 14.6C17 36 32 54 32 54s15-18 15-29.4C47 16.5 40.3 10 32 10Z" fill="url(#pin-gradient)" />
  <circle cx="27" cy="24" r="4" fill="#ffffff" />
  <circle cx="37" cy="24" r="4" fill="#ffffff" />
  <path d="M22 36c1.4-4.1 5-6.5 10-6.5S40.6 31.9 42 36" fill="none" stroke="#ffffff" stroke-width="4" stroke-linecap="round" />
  <circle cx="32" cy="30" r="3" fill="#bfdbfe" />
</svg>
